<svg width="42" height="42" viewBox="0 0 42 42" fill="none" xmlns="http://www.w3.org/2000/svg">
<path d="M21.9701 28.4751H15.2425C14.8299 28.4751 14.495 28.1402 14.495 27.7276V14.2725C14.495 13.8598 14.8299 13.525 15.2425 13.525H21.9701C22.3835 13.525 22.7176 13.1908 22.7176 12.7775C22.7176 12.3641 22.3835 12.0299 21.9701 12.0299H15.2425C14.0061 12.0299 13 13.0361 13 14.2725V27.7276C13 28.964 14.0061 29.9701 15.2425 29.9701H21.9701C22.3835 29.9701 22.7176 29.636 22.7176 29.2226C22.7176 28.8092 22.3835 28.4751 21.9701 28.4751Z" fill="black"/>
<path d="M30.7772 20.4678L26.2323 15.9827C25.9393 15.6927 25.4654 15.6964 25.1753 15.9902C24.8853 16.284 24.8883 16.7571 25.1828 17.0472L28.4307 20.2525H19.7275C19.3141 20.2525 18.98 20.5866 18.98 21C18.98 21.4133 19.3141 21.7475 19.7275 21.7475H28.4307L25.1828 24.9528C24.8883 25.2428 24.8861 25.716 25.1753 26.0098C25.3218 26.1578 25.5147 26.2325 25.7076 26.2325C25.8974 26.2325 26.0873 26.1608 26.2323 26.0172L30.7772 21.5322C30.9192 21.3916 30.9999 21.2003 30.9999 20.9999C30.9999 20.7997 30.9199 20.6091 30.7772 20.4678Z" fill="black"/>
</svg>
