<svg width="42" height="42" viewBox="0 0 42 42" fill="none" xmlns="http://www.w3.org/2000/svg">
<path d="M28.649 26.9161C28.5859 26.878 28.1106 26.568 27.6346 25.6303C26.7606 23.9084 26.5772 21.4827 26.5772 19.751C26.5772 19.7434 26.577 19.736 26.5767 19.7285C26.5672 17.4398 25.095 15.467 22.9884 14.5818V13.228C22.9884 11.9995 21.9165 11 20.599 11H20.401C19.0835 11 18.0116 11.9995 18.0116 13.228V14.5817C15.8979 15.4697 14.4228 17.4527 14.4228 19.751C14.4228 21.4827 14.2394 23.9083 13.3653 25.6303C12.8895 26.568 12.4142 26.8779 12.351 26.9161C12.0848 27.0308 11.9536 27.2956 12.0148 27.564C12.0767 27.8351 12.3488 28.022 12.646 28.022H17.2596C17.2854 29.6681 18.7286 31 20.5 31C22.2714 31 23.7147 29.6681 23.7404 28.022H28.354C28.6512 28.022 28.9234 27.8351 28.9852 27.564C29.0463 27.2956 28.9151 27.0307 28.649 26.9161ZM19.2705 13.228C19.2705 12.6467 19.7776 12.1738 20.401 12.1738H20.599C21.2224 12.1738 21.7296 12.6467 21.7296 13.228V14.2013C21.3323 14.1248 20.921 14.0846 20.4998 14.0846C20.0788 14.0846 19.6677 14.1248 19.2705 14.2012V13.228H19.2705ZM20.5 29.8262C19.4227 29.8262 18.544 29.0209 18.5185 28.022H22.4815C22.456 29.0208 21.5773 29.8262 20.5 29.8262ZM23.0345 26.8481C23.0344 26.8481 14.0805 26.8481 14.0805 26.8481C14.1894 26.6902 14.3002 26.5113 14.4104 26.3091C15.254 24.7606 15.6817 22.5541 15.6817 19.751C15.6817 17.2737 17.8431 15.2584 20.4998 15.2584C23.1565 15.2584 25.3179 17.2737 25.3179 19.7529C25.3179 19.7602 25.318 19.7673 25.3183 19.7745C25.3207 22.5664 25.7484 24.765 26.5897 26.3091C26.6998 26.5113 26.8107 26.6902 26.9195 26.8481H23.0345Z" fill="black"/>
</svg>
