<svg width="42" height="42" viewBox="0 0 42 42" fill="none" xmlns="http://www.w3.org/2000/svg">
<path d="M22.0001 16.2192C19.364 16.2192 17.2192 18.364 17.2192 21.0001C17.2192 23.6362 19.364 25.7809 22.0001 25.7809C24.6362 25.7809 26.781 23.6362 26.781 21.0001C26.781 18.364 24.6362 16.2192 22.0001 16.2192ZM22.0001 24.5857C20.023 24.5857 18.4145 22.9771 18.4145 21.0001C18.4145 19.023 20.023 17.4144 22.0001 17.4144C23.9772 17.4144 25.5858 19.023 25.5858 21.0001C25.5858 22.9771 23.9772 24.5857 22.0001 24.5857Z" fill="black"/>
<path d="M31.5294 18.7228L29.9922 18.3886C29.8586 17.9794 29.693 17.5802 29.4976 17.1957L30.3485 15.872C30.5005 15.6355 30.4671 15.325 30.2684 15.1263L27.8737 12.7316C27.675 12.5329 27.3645 12.4995 27.128 12.6515L25.8043 13.5024C25.4198 13.307 25.0206 13.1414 24.6114 13.0078L24.2772 11.4706C24.2176 11.1959 23.9743 11 23.6933 11H20.3067C20.0257 11 19.7824 11.1959 19.7228 11.4706L19.3886 13.0078C18.9794 13.1414 18.5802 13.307 18.1957 13.5024L16.872 12.6515C16.6355 12.4995 16.325 12.5329 16.1263 12.7316L13.7316 15.1263C13.5329 15.325 13.4995 15.6355 13.6515 15.872L14.5024 17.1957C14.307 17.5802 14.1414 17.9794 14.0078 18.3886L12.4706 18.7228C12.1959 18.7826 12 19.0257 12 19.3067V22.6933C12 22.9743 12.1959 23.2174 12.4706 23.2772L14.0078 23.6114C14.1414 24.0206 14.307 24.4198 14.5024 24.8043L13.6515 26.128C13.4995 26.3645 13.5329 26.675 13.7316 26.8737L16.1263 29.2684C16.325 29.4671 16.6355 29.5005 16.872 29.3485L18.1957 28.4976C18.5802 28.693 18.9794 28.8586 19.3886 28.9922L19.7228 30.5294C19.7824 30.8041 20.0257 31 20.3067 31H23.6933C23.9743 31 24.2176 30.8041 24.2772 30.5294L24.6114 28.9922C25.0206 28.8586 25.4198 28.693 25.8043 28.4976L27.128 29.3485C27.3645 29.5005 27.675 29.4673 27.8737 29.2684L30.2684 26.8737C30.4671 26.675 30.5005 26.3645 30.3485 26.128L29.4976 24.8043C29.693 24.4198 29.8586 24.0206 29.9922 23.6114L31.5294 23.2772C31.8041 23.2174 32 22.9743 32 22.6933V19.3067C32 19.0257 31.8041 18.7826 31.5294 18.7228ZM30.8048 22.2115L29.3953 22.5179C29.1788 22.5651 29.0061 22.7281 28.9466 22.9414C28.7917 23.4969 28.5689 24.0342 28.2845 24.5382C28.1755 24.7312 28.1823 24.9687 28.3022 25.1551L29.0827 26.3691L27.3693 28.0827L26.1551 27.3022C25.9687 27.1823 25.7312 27.1755 25.5384 27.2845C25.0342 27.5689 24.4969 27.7917 23.9414 27.9466C23.7281 28.0061 23.5651 28.1788 23.5179 28.3953L23.2115 29.8048H20.7885L20.4821 28.3953C20.4349 28.1788 20.2719 28.0061 20.0586 27.9466C19.5031 27.7917 18.9658 27.5689 18.4618 27.2845C18.2688 27.1755 18.0313 27.1824 17.8449 27.3022L16.6309 28.0827L14.9175 26.3691L15.6978 25.1551C15.8177 24.9687 15.8246 24.7312 15.7157 24.5382C15.4312 24.0342 15.2085 23.4969 15.0534 22.9414C14.9939 22.7281 14.8214 22.5651 14.6048 22.5179L13.1952 22.2115V19.7885L14.6047 19.4821C14.8212 19.4349 14.9939 19.2719 15.0534 19.0586C15.2083 18.5031 15.4311 17.9658 15.7155 17.4618C15.8245 17.2688 15.8177 17.0313 15.6978 16.8449L14.9173 15.6309L16.6307 13.9173L17.8449 14.6978C18.0313 14.8177 18.2688 14.8245 18.4616 14.7155C18.9658 14.4311 19.5031 14.2083 20.0586 14.0534C20.2719 13.9939 20.4349 13.8212 20.4821 13.6047L20.7885 12.1952H23.2115L23.5179 13.6047C23.5651 13.8212 23.7281 13.9939 23.9414 14.0534C24.4969 14.2083 25.0342 14.4311 25.5382 14.7155C25.7312 14.8245 25.9687 14.8176 26.1551 14.6978L27.3691 13.9173L29.0825 15.6309L28.3022 16.8449C28.1823 17.0313 28.1754 17.2688 28.2843 17.4618C28.5689 17.9658 28.7915 18.5031 28.9466 19.0586C29.0061 19.2719 29.1786 19.4349 29.3952 19.4821L30.8048 19.7885V22.2115Z" fill="black"/>
</svg>
